<mxfile host="app.diagrams.net" modified="2023-12-06T06:52:57.369Z" agent="Mozilla/5.0 (Windows NT 10.0; Win64; x64) AppleWebKit/537.36 (KHTML, like Gecko) Chrome/119.0.0.0 Safari/537.36" etag="hsbpccDESRuiWyS3wMJ9" version="22.1.5" type="device">
  <diagram id="cHq-HITW49ZTpj3Hu2TN" name="Page 2">
    <mxGraphModel dx="1461" dy="1845" grid="1" gridSize="10" guides="1" tooltips="1" connect="1" arrows="1" fold="1" page="1" pageScale="1" pageWidth="850" pageHeight="1100" math="0" shadow="0">
      <root>
        <mxCell id="0" />
        <mxCell id="1" parent="0" />
        <mxCell id="ReJkrMEg36XuSZIFQXkJ-1" value="" style="graphMlID=e0;endArrow=none;strokeColor=#FF6392;strokeWidth=1.0;startArrow=diamond;startFill=0;endFill=1;exitX=1;exitY=0.25;exitDx=0;exitDy=0;fontColor=#5AA9E6;entryX=-0.008;entryY=-0.286;entryDx=0;entryDy=0;entryPerimeter=0;" parent="1" source="ReJkrMEg36XuSZIFQXkJ-14" target="ReJkrMEg36XuSZIFQXkJ-21" edge="1">
          <mxGeometry relative="1" as="geometry" />
        </mxCell>
        <mxCell id="ReJkrMEg36XuSZIFQXkJ-2" value="" style="graphMlID=e1;endArrow=none;strokeColor=#FF6392;strokeWidth=1.0;startArrow=diamond;startFill=0;endFill=1;exitX=1;exitY=0.5;exitDx=0;exitDy=0;fontColor=#5AA9E6;entryX=0;entryY=0.5;entryDx=0;entryDy=0;" parent="1" source="ReJkrMEg36XuSZIFQXkJ-15" target="ReJkrMEg36XuSZIFQXkJ-23" edge="1">
          <mxGeometry relative="1" as="geometry" />
        </mxCell>
        <mxCell id="ReJkrMEg36XuSZIFQXkJ-3" value="" style="graphMlID=e2;endArrow=none;strokeColor=#FF6392;strokeWidth=1.0;startArrow=diamond;startFill=0;endFill=1;fontColor=#5AA9E6;entryX=0;entryY=0.25;entryDx=0;entryDy=0;" parent="1" source="ReJkrMEg36XuSZIFQXkJ-22" target="ReJkrMEg36XuSZIFQXkJ-49" edge="1">
          <mxGeometry relative="1" as="geometry">
            <mxPoint x="648" y="240" as="sourcePoint" />
          </mxGeometry>
        </mxCell>
        <mxCell id="ReJkrMEg36XuSZIFQXkJ-4" value="" style="graphMlID=e3;endArrow=none;strokeColor=#FF6392;strokeWidth=1.0;startArrow=diamond;startFill=0;endFill=1;exitX=0.988;exitY=-0.077;exitDx=0;exitDy=0;exitPerimeter=0;fontColor=#5AA9E6;entryX=-0.023;entryY=0.105;entryDx=0;entryDy=0;entryPerimeter=0;" parent="1" source="ReJkrMEg36XuSZIFQXkJ-17" target="ReJkrMEg36XuSZIFQXkJ-26" edge="1">
          <mxGeometry relative="1" as="geometry">
            <mxPoint x="840" y="580" as="targetPoint" />
          </mxGeometry>
        </mxCell>
        <mxCell id="ReJkrMEg36XuSZIFQXkJ-5" value="" style="graphMlID=e4;endArrow=none;strokeColor=#FF6392;strokeWidth=1.0;startArrow=diamond;startFill=0;endFill=1;exitX=0.975;exitY=1;exitDx=0;exitDy=0;exitPerimeter=0;fontColor=#5AA9E6;entryX=0;entryY=0.5;entryDx=0;entryDy=0;" parent="1" source="ReJkrMEg36XuSZIFQXkJ-17" target="ReJkrMEg36XuSZIFQXkJ-33" edge="1">
          <mxGeometry relative="1" as="geometry" />
        </mxCell>
        <mxCell id="ReJkrMEg36XuSZIFQXkJ-6" value="" style="graphMlID=e5;endArrow=none;strokeColor=#FF6392;strokeWidth=1.0;startArrow=diamond;startFill=0;endFill=1;fontColor=#5AA9E6;exitX=1.001;exitY=-0.077;exitDx=0;exitDy=0;exitPerimeter=0;" parent="1" source="ReJkrMEg36XuSZIFQXkJ-19" target="ReJkrMEg36XuSZIFQXkJ-43" edge="1">
          <mxGeometry relative="1" as="geometry" />
        </mxCell>
        <mxCell id="ReJkrMEg36XuSZIFQXkJ-7" value="" style="graphMlID=e6;endArrow=none;strokeColor=#FF6392;strokeWidth=1.0;startArrow=diamond;startFill=0;endFill=1;fontColor=#5AA9E6;" parent="1" source="ReJkrMEg36XuSZIFQXkJ-26" target="ReJkrMEg36XuSZIFQXkJ-54" edge="1">
          <mxGeometry relative="1" as="geometry" />
        </mxCell>
        <mxCell id="ReJkrMEg36XuSZIFQXkJ-8" value="" style="graphMlID=e7;endArrow=none;strokeColor=#FF6392;strokeWidth=1.0;startArrow=none;startFill=1;endFill=1;fontColor=#5AA9E6;entryX=0;entryY=0.25;entryDx=0;entryDy=0;exitX=1;exitY=0.5;exitDx=0;exitDy=0;" parent="1" source="ReJkrMEg36XuSZIFQXkJ-29" target="ReJkrMEg36XuSZIFQXkJ-34" edge="1">
          <mxGeometry relative="1" as="geometry" />
        </mxCell>
        <mxCell id="ReJkrMEg36XuSZIFQXkJ-9" value="" style="graphMlID=e8;endArrow=none;strokeColor=#FF6392;strokeWidth=1.0;startArrow=diamond;startFill=0;endFill=1;fontColor=#5AA9E6;exitX=1;exitY=0.5;exitDx=0;exitDy=0;entryX=0;entryY=0.5;entryDx=0;entryDy=0;" parent="1" source="ReJkrMEg36XuSZIFQXkJ-21" edge="1">
          <mxGeometry relative="1" as="geometry">
            <mxPoint x="710" y="80" as="sourcePoint" />
            <mxPoint x="1940" y="417" as="targetPoint" />
          </mxGeometry>
        </mxCell>
        <mxCell id="ReJkrMEg36XuSZIFQXkJ-10" value="" style="graphMlID=e9;endArrow=none;strokeColor=#FF6392;strokeWidth=1.0;startArrow=diamond;startFill=0;endFill=1;fontColor=#5AA9E6;exitX=1;exitY=0.5;exitDx=0;exitDy=0;entryX=-0.013;entryY=0.08;entryDx=0;entryDy=0;entryPerimeter=0;" parent="1" target="ReJkrMEg36XuSZIFQXkJ-58" edge="1">
          <mxGeometry relative="1" as="geometry">
            <mxPoint x="2100" y="417" as="sourcePoint" />
          </mxGeometry>
        </mxCell>
        <mxCell id="ReJkrMEg36XuSZIFQXkJ-11" value="" style="graphMlID=e11;endArrow=none;strokeColor=#FF6392;strokeWidth=1.0;startArrow=diamond;startFill=0;endFill=1;fontColor=#5AA9E6;exitX=1;exitY=0.5;exitDx=0;exitDy=0;entryX=0.006;entryY=0.178;entryDx=0;entryDy=0;entryPerimeter=0;" parent="1" source="ReJkrMEg36XuSZIFQXkJ-54" target="ReJkrMEg36XuSZIFQXkJ-62" edge="1">
          <mxGeometry relative="1" as="geometry" />
        </mxCell>
        <mxCell id="ReJkrMEg36XuSZIFQXkJ-12" value="" style="graphMlID=e13;endArrow=none;strokeColor=#FF6392;strokeWidth=1.0;startArrow=none;startFill=1;endFill=1;fontColor=#5AA9E6;entryX=0.585;entryY=1.023;entryDx=0;entryDy=0;entryPerimeter=0;exitX=0.668;exitY=-0.009;exitDx=0;exitDy=0;exitPerimeter=0;" parent="1" source="ReJkrMEg36XuSZIFQXkJ-22" target="ReJkrMEg36XuSZIFQXkJ-21" edge="1">
          <mxGeometry relative="1" as="geometry" />
        </mxCell>
        <mxCell id="ReJkrMEg36XuSZIFQXkJ-13" value="" style="graphMlID=e14;endArrow=none;strokeColor=#FF6392;strokeWidth=1.0;startArrow=none;startFill=1;endFill=1;fontColor=#5AA9E6;exitX=0.5;exitY=0;exitDx=0;exitDy=0;" parent="1" source="ReJkrMEg36XuSZIFQXkJ-53" target="ReJkrMEg36XuSZIFQXkJ-48" edge="1">
          <mxGeometry relative="1" as="geometry">
            <mxPoint x="1177.6990312711996" y="279.6614280464578" as="targetPoint" />
          </mxGeometry>
        </mxCell>
        <mxCell id="ReJkrMEg36XuSZIFQXkJ-14" value="VirtualWorld" style="swimlane;fontStyle=1;align=center;verticalAlign=top;childLayout=stackLayout;horizontal=1;startSize=20;horizontalStack=0;resizeParent=1;resizeParentMax=0;resizeLast=0;collapsible=1;marginBottom=0;hachureGap=4;pointerEvents=0;fillColor=#FFE45E;strokeColor=#FF6392;fontColor=#5AA9E6;" parent="1" vertex="1">
          <mxGeometry x="20" y="150" width="300" height="610" as="geometry" />
        </mxCell>
        <mxCell id="ReJkrMEg36XuSZIFQXkJ-15" value="+TIMER_ACTION_PERIOD: int         &lt;&lt;static&gt;&gt;&#xa;+VIEW_WIDTH: int                          &lt;&lt;static&gt;&gt;&#xa;+VIEW_HEIGHT: int                         &lt;&lt;static&gt;&gt;&#xa;+TILE_WIDTH: int                           &lt;&lt;static&gt;&gt;&#xa;+TILE_HEIGHT: int                          &lt;&lt;static&gt;&gt;&#xa;+WORLD_WIDTH_SCALE: int           &lt;&lt;static&gt;&gt;&#xa;+WORLD_HEIGHT_SCALE: int          &lt;&lt;static&gt;&gt;&#xa;+VIEW_COLS: int                             &lt;&lt;static&gt;&gt;&#xa;+VIEW_ROWS: int                            &lt;&lt;static&gt;&gt;&#xa;+WORLD_COLS: int                         &lt;&lt;static&gt;&gt;&#xa;+WORLD_ROWS: int                        &lt;&lt;static&gt;&gt;&#xa;+IMAGE_LIST_FILE_NAME: String    &lt;&lt;static&gt;&gt;&#xa;+DEFAULT_IMAGE_NAME: String    &lt;&lt;static&gt;&gt;&#xa;+DEFAULT_IMAGE_COLOR: int       &lt;&lt;static&gt;&gt;&#xa;+LOAD_FILE_NAME: String            &lt;&lt;static&gt;&gt;&#xa;+FAST_FLAG: String                      &lt;&lt;static&gt;&gt;&#xa;+FASTER_FLAG: String                  &lt;&lt;static&gt;&gt;&#xa;+FASTEST_FLAG: String                &lt;&lt;static&gt;&gt;&#xa;+FAST_SCALE: double                  &lt;&lt;static&gt;&gt;&#xa;+FASTER_SCALE: double              &lt;&lt;static&gt;&gt;&#xa;+FASTEST_SCALE: double            &lt;&lt;static&gt;&gt;&#xa;+timeScale: double&#xa;-imageStore: ImageStore&#xa;-world: WorldModel&#xa;-view: WorldView&#xa;-scheduler: EventScheduler" style="text;strokeColor=none;fillColor=none;align=left;verticalAlign=top;spacingLeft=4;spacingRight=4;overflow=hidden;rotatable=0;points=[[0,0.5],[1,0.5]];portConstraint=eastwest;fontColor=#5AA9E6;" parent="ReJkrMEg36XuSZIFQXkJ-14" vertex="1">
          <mxGeometry y="20" width="300" height="380" as="geometry" />
        </mxCell>
        <mxCell id="ReJkrMEg36XuSZIFQXkJ-16" value="" style="line;strokeWidth=1;fillColor=none;align=left;verticalAlign=middle;spacingTop=-1;spacingLeft=3;spacingRight=3;rotatable=0;labelPosition=right;points=[];portConstraint=eastwest;strokeColor=#FF6392;fontColor=#5AA9E6;" parent="ReJkrMEg36XuSZIFQXkJ-14" vertex="1">
          <mxGeometry y="400" width="300" height="8" as="geometry" />
        </mxCell>
        <mxCell id="ReJkrMEg36XuSZIFQXkJ-17" value="+settings()&#xa;+setup()&#xa;+draw()&#xa;+mousePressed()&#xa;-mouseToPoint()&#xa;+keyPressed()&#xa;+createDefaultBackground()         &lt;&lt;static&gt;&gt;&#xa;+createImageColored()                 &lt;&lt;static&gt;&gt;&#xa;+loadWorld()                                 &lt;&lt;static&gt;&gt;&#xa;+loadWorld()                                 &lt;&lt;static&gt;&gt;&#xa;+scheduleActions()                       &lt;&lt;static&gt;&gt;&#xa;+parseCommandLine()                  &lt;&lt;static&gt;&gt;&#xa;+main()                                         &lt;&lt;static&gt;&gt;" style="text;strokeColor=none;fillColor=none;align=left;verticalAlign=top;spacingLeft=4;spacingRight=4;overflow=hidden;rotatable=0;points=[[0,0.5],[1,0.5]];portConstraint=eastwest;fontColor=#5AA9E6;" parent="ReJkrMEg36XuSZIFQXkJ-14" vertex="1">
          <mxGeometry y="408" width="300" height="202" as="geometry" />
        </mxCell>
        <mxCell id="ReJkrMEg36XuSZIFQXkJ-18" value="WorldModel" style="swimlane;fontStyle=1;align=center;verticalAlign=top;childLayout=stackLayout;horizontal=1;startSize=26;horizontalStack=0;resizeParent=1;resizeParentMax=0;resizeLast=0;collapsible=1;marginBottom=0;hachureGap=4;pointerEvents=0;sketch=0;fontColor=#5AA9E6;strokeColor=#FF6392;fillColor=#FFE45E;" parent="1" vertex="1">
          <mxGeometry x="520" width="280" height="260" as="geometry" />
        </mxCell>
        <mxCell id="ReJkrMEg36XuSZIFQXkJ-19" value="-numRows: int&#xa;-numCols: int&#xa;-background: Background[][]&#xa;-occupancy: Entity[][]&#xa;-entities: Set&lt;Entity&gt;" style="text;strokeColor=none;fillColor=none;align=left;verticalAlign=top;spacingLeft=4;spacingRight=4;overflow=hidden;rotatable=0;points=[[0,0.5],[1,0.5]];portConstraint=eastwest;fontColor=#000000;" parent="ReJkrMEg36XuSZIFQXkJ-18" vertex="1">
          <mxGeometry y="26" width="280" height="94" as="geometry" />
        </mxCell>
        <mxCell id="ReJkrMEg36XuSZIFQXkJ-20" value="" style="line;strokeWidth=1;fillColor=none;align=left;verticalAlign=middle;spacingTop=-1;spacingLeft=3;spacingRight=3;rotatable=0;labelPosition=right;points=[];portConstraint=eastwest;strokeColor=#FF6392;fontColor=#5AA9E6;" parent="ReJkrMEg36XuSZIFQXkJ-18" vertex="1">
          <mxGeometry y="120" width="280" height="8" as="geometry" />
        </mxCell>
        <mxCell id="ReJkrMEg36XuSZIFQXkJ-21" value="TODO&#xa;+getEntities()        +tryAddEntity()    +moveEntity()&#xa;+getNumRows() +withinBounds()+removeEntityAt()&#xa;+getNumCols()    +isOccupied +getBackgroundImage()&#xa;+addEntity()        +removeEntity() +setBackground()&#xa;+getOccupant() +getOccupancyCell() +setOccupancyCell()&#xa;+getBackgroundCell() +setBackgroundCell()&#xa;+load() +findNearest() +" style="text;strokeColor=none;fillColor=none;align=left;verticalAlign=top;spacingLeft=4;spacingRight=4;overflow=hidden;rotatable=0;points=[[0,0.5],[1,0.5]];portConstraint=eastwest;fontColor=#020405;" parent="ReJkrMEg36XuSZIFQXkJ-18" vertex="1">
          <mxGeometry y="128" width="280" height="132" as="geometry" />
        </mxCell>
        <mxCell id="ReJkrMEg36XuSZIFQXkJ-22" value="WorldView" style="swimlane;fontStyle=1;align=center;verticalAlign=top;childLayout=stackLayout;horizontal=1;startSize=26;horizontalStack=0;resizeParent=1;resizeParentMax=0;resizeLast=0;collapsible=1;marginBottom=0;hachureGap=4;pointerEvents=0;sketch=0;fontColor=#5AA9E6;strokeColor=#FF6392;fillColor=#FFE45E;" parent="1" vertex="1">
          <mxGeometry x="490" y="340" width="280" height="190" as="geometry" />
        </mxCell>
        <mxCell id="ReJkrMEg36XuSZIFQXkJ-23" value="-screen: PApplet&#xa;-world: WorldModel&#xa;-tileWidth: int&#xa;-tileHeight: int&#xa;-viewport: Viewport" style="text;strokeColor=none;fillColor=none;align=left;verticalAlign=top;spacingLeft=4;spacingRight=4;overflow=hidden;rotatable=0;points=[[0,0.5],[1,0.5]];portConstraint=eastwest;fontColor=#000000;" parent="ReJkrMEg36XuSZIFQXkJ-22" vertex="1">
          <mxGeometry y="26" width="280" height="84" as="geometry" />
        </mxCell>
        <mxCell id="ReJkrMEg36XuSZIFQXkJ-24" value="" style="line;strokeWidth=1;fillColor=none;align=left;verticalAlign=middle;spacingTop=-1;spacingLeft=3;spacingRight=3;rotatable=0;labelPosition=right;points=[];portConstraint=eastwest;strokeColor=#FF6392;fontColor=#5AA9E6;" parent="ReJkrMEg36XuSZIFQXkJ-22" vertex="1">
          <mxGeometry y="110" width="280" height="8" as="geometry" />
        </mxCell>
        <mxCell id="ReJkrMEg36XuSZIFQXkJ-25" value="TODO&#xa;+getViewport() +drawEntities() +shiftView()    &#xa;+drawBackground() +drawViewport()                              " style="text;strokeColor=none;fillColor=none;align=left;verticalAlign=top;spacingLeft=4;spacingRight=4;overflow=hidden;rotatable=0;points=[[0,0.5],[1,0.5]];portConstraint=eastwest;fontColor=#000000;" parent="ReJkrMEg36XuSZIFQXkJ-22" vertex="1">
          <mxGeometry y="118" width="280" height="72" as="geometry" />
        </mxCell>
        <mxCell id="ReJkrMEg36XuSZIFQXkJ-26" value="EventScheduler" style="swimlane;fontStyle=1;align=center;verticalAlign=top;childLayout=stackLayout;horizontal=1;startSize=26;horizontalStack=0;resizeParent=1;resizeParentMax=0;resizeLast=0;collapsible=1;marginBottom=0;hachureGap=4;pointerEvents=0;sketch=0;fontColor=#5AA9E6;strokeColor=#FF6392;fillColor=#FFE45E;" parent="1" vertex="1">
          <mxGeometry x="500" y="580" width="280" height="180" as="geometry" />
        </mxCell>
        <mxCell id="ReJkrMEg36XuSZIFQXkJ-27" value="-eventQueue: PriorityQueue&lt;Event&gt;&#xa;-pendingEvents: Map&lt;Entity, List&lt;Event&gt;&gt;&#xa;-timeScale: double" style="text;strokeColor=none;fillColor=none;align=left;verticalAlign=top;spacingLeft=4;spacingRight=4;overflow=hidden;rotatable=0;points=[[0,0.5],[1,0.5]];portConstraint=eastwest;fontColor=#000000;" parent="ReJkrMEg36XuSZIFQXkJ-26" vertex="1">
          <mxGeometry y="26" width="280" height="64" as="geometry" />
        </mxCell>
        <mxCell id="ReJkrMEg36XuSZIFQXkJ-28" value="" style="line;strokeWidth=1;fillColor=none;align=left;verticalAlign=middle;spacingTop=-1;spacingLeft=3;spacingRight=3;rotatable=0;labelPosition=right;points=[];portConstraint=eastwest;strokeColor=#FF6392;fontColor=#5AA9E6;" parent="ReJkrMEg36XuSZIFQXkJ-26" vertex="1">
          <mxGeometry y="90" width="280" height="8" as="geometry" />
        </mxCell>
        <mxCell id="ReJkrMEg36XuSZIFQXkJ-29" value="TODO&#xa;+scheduleActions() +scheduleEvent() &#xa;+unscheduleAllEvents() +removePendingEvent()&#xa;+updateOnTime() " style="text;strokeColor=none;fillColor=none;align=left;verticalAlign=top;spacingLeft=4;spacingRight=4;overflow=hidden;rotatable=0;points=[[0,0.5],[1,0.5]];portConstraint=eastwest;fontColor=#000000;" parent="ReJkrMEg36XuSZIFQXkJ-26" vertex="1">
          <mxGeometry y="98" width="280" height="82" as="geometry" />
        </mxCell>
        <mxCell id="ReJkrMEg36XuSZIFQXkJ-30" value="ImageStore" style="swimlane;fontStyle=1;align=center;verticalAlign=top;childLayout=stackLayout;horizontal=1;startSize=26;horizontalStack=0;resizeParent=1;resizeParentMax=0;resizeLast=0;collapsible=1;marginBottom=0;hachureGap=4;pointerEvents=0;sketch=0;fontColor=#5AA9E6;strokeColor=#FF6392;fillColor=#FFE45E;" parent="1" vertex="1">
          <mxGeometry x="900" y="910" width="280" height="130" as="geometry" />
        </mxCell>
        <mxCell id="ReJkrMEg36XuSZIFQXkJ-31" value="-images: Map&lt;String, List&lt;PImage&gt;&gt;&#xa;-defaultImages: List&lt;PImage&gt;" style="text;strokeColor=none;fillColor=none;align=left;verticalAlign=top;spacingLeft=4;spacingRight=4;overflow=hidden;rotatable=0;points=[[0,0.5],[1,0.5]];portConstraint=eastwest;fontColor=#000000;" parent="ReJkrMEg36XuSZIFQXkJ-30" vertex="1">
          <mxGeometry y="26" width="280" height="54" as="geometry" />
        </mxCell>
        <mxCell id="ReJkrMEg36XuSZIFQXkJ-32" value="" style="line;strokeWidth=1;fillColor=none;align=left;verticalAlign=middle;spacingTop=-1;spacingLeft=3;spacingRight=3;rotatable=0;labelPosition=right;points=[];portConstraint=eastwest;strokeColor=#FF6392;fontColor=#5AA9E6;" parent="ReJkrMEg36XuSZIFQXkJ-30" vertex="1">
          <mxGeometry y="80" width="280" height="8" as="geometry" />
        </mxCell>
        <mxCell id="ReJkrMEg36XuSZIFQXkJ-33" value="TODO&#xa;+getImageList() +loadImage()" style="text;strokeColor=none;fillColor=none;align=left;verticalAlign=top;spacingLeft=4;spacingRight=4;overflow=hidden;rotatable=0;points=[[0,0.5],[1,0.5]];portConstraint=eastwest;fontColor=#000000;" parent="ReJkrMEg36XuSZIFQXkJ-30" vertex="1">
          <mxGeometry y="88" width="280" height="42" as="geometry" />
        </mxCell>
        <mxCell id="ReJkrMEg36XuSZIFQXkJ-34" value="EventComparator" style="swimlane;fontStyle=1;align=center;verticalAlign=top;childLayout=stackLayout;horizontal=1;startSize=26;horizontalStack=0;resizeParent=1;resizeParentMax=0;resizeLast=0;collapsible=1;marginBottom=0;hachureGap=4;pointerEvents=0;sketch=0;fontColor=#5AA9E6;strokeColor=#FF6392;fillColor=#FFE45E;" parent="1" vertex="1">
          <mxGeometry x="850" y="580" width="240" height="134" as="geometry" />
        </mxCell>
        <mxCell id="ReJkrMEg36XuSZIFQXkJ-35" value="+eventQueue: PriorityQueue&lt;Event&gt;&#xa;+pendingEvents: Map&lt;Entity, List&lt;Event&gt;&gt;&#xa;+timeScale: double" style="text;strokeColor=none;fillColor=none;align=left;verticalAlign=top;spacingLeft=4;spacingRight=4;overflow=hidden;rotatable=0;points=[[0,0.5],[1,0.5]];portConstraint=eastwest;fontColor=#000000;" parent="ReJkrMEg36XuSZIFQXkJ-34" vertex="1">
          <mxGeometry y="26" width="240" height="74" as="geometry" />
        </mxCell>
        <mxCell id="ReJkrMEg36XuSZIFQXkJ-36" value="" style="line;strokeWidth=1;fillColor=none;align=left;verticalAlign=middle;spacingTop=-1;spacingLeft=3;spacingRight=3;rotatable=0;labelPosition=right;points=[];portConstraint=eastwest;strokeColor=#FF6392;fontColor=#5AA9E6;" parent="ReJkrMEg36XuSZIFQXkJ-34" vertex="1">
          <mxGeometry y="100" width="240" height="8" as="geometry" />
        </mxCell>
        <mxCell id="ReJkrMEg36XuSZIFQXkJ-37" value="TODO" style="text;strokeColor=none;fillColor=none;align=left;verticalAlign=top;spacingLeft=4;spacingRight=4;overflow=hidden;rotatable=0;points=[[0,0.5],[1,0.5]];portConstraint=eastwest;fontColor=#000000;" parent="ReJkrMEg36XuSZIFQXkJ-34" vertex="1">
          <mxGeometry y="108" width="240" height="26" as="geometry" />
        </mxCell>
        <mxCell id="ReJkrMEg36XuSZIFQXkJ-38" value="Functions" style="swimlane;fontStyle=1;align=center;verticalAlign=top;childLayout=stackLayout;horizontal=1;startSize=26;horizontalStack=0;resizeParent=1;resizeParentMax=0;resizeLast=0;collapsible=1;marginBottom=0;hachureGap=4;pointerEvents=0;sketch=0;fontColor=#5AA9E6;strokeColor=#FF6392;fillColor=#FFE45E;" parent="1" vertex="1">
          <mxGeometry x="500.00000000000006" y="930" width="360" height="1210" as="geometry" />
        </mxCell>
        <mxCell id="ReJkrMEg36XuSZIFQXkJ-39" value="+rand: Random                                &lt;&lt;static&gt;&gt;&#xa;&#xa;+COLOR_MASK: int                             &lt;&lt;static&gt;&gt;&#xa;+KEYED_IMAGE_MIN: int                        &lt;&lt;static&gt;&gt;&#xa;+KEYED_RED_IDX: int                        &lt;&lt;static&gt;&gt;&#xa;+KEYED_GREEN_IDX: int                        &lt;&lt;static&gt;&gt;&#xa;+KEYED_BLUE_IDX: int                        &lt;&lt;static&gt;&gt;&#xa;&#xa;+PROPERTY_KEY: int                           &lt;&lt;static&gt;&gt;&#xa;&#xa;+PATH_KEYS: List&lt;String                    &lt;&lt;static&gt;&gt;&#xa;&#xa;+SAPLING_KEY: String                            &lt;&lt;static&gt;&gt;&#xa;+SAPLING_HEALTH_LIMIT: int                               &lt;&lt;static&gt;&gt;&#xa;+ SAPLING_ACTION_ANIMATION_PERIOD:  int     &lt;&lt;static&gt;&gt;&#xa;+SAPLING_NUM_PROPERTIES: int                      &lt;&lt;static&gt;&gt;&#xa;+SAPLING_ID: String                            &lt;&lt;static&gt;&gt;&#xa;+SAPLING_COL: int                    &lt;&lt;static&gt;&gt;&#xa;+SAPLING_ROW: int                                &lt;&lt;static&gt;&gt;&#xa;+SAPLING_HEALTH: int                               &lt;&lt;static&gt;&gt;&#xa;&#xa;&#xa;+BGND_KEY: String                            &lt;&lt;static&gt;&gt;&#xa;+BGND_NUM_PROPERTIES: int                    &lt;&lt;static&gt;&gt;&#xa;+BGND_ID: int                                &lt;&lt;static&gt;&gt;&#xa;+BGND_COL: int                               &lt;&lt;static&gt;&gt;&#xa;+BGND_ROW: int                               &lt;&lt;static&gt;&gt;&#xa;&#xa;+OBSTACLE_KEY: String                        &lt;&lt;static&gt;&gt;&#xa;+OBSTACLE_NUM_PROPERTIES: int                &lt;&lt;static&gt;&gt;&#xa;+OBSTACLE_ID: int                            &lt;&lt;static&gt;&gt;&#xa;+OBSTACLE_COL: int                           &lt;&lt;static&gt;&gt;&#xa;+OBSTACLE_ROW: int                           &lt;&lt;static&gt;&gt;&#xa;+OBSTACLE_ANIMATION_PERIOD: int     &lt;&lt;static&gt;&gt;&#xa;&#xa;+DUDE_KEY: String                               &lt;&lt;static&gt;&gt;&#xa;+DUDE_NUM_PROPERTIES: int                     &lt;&lt;static&gt;&gt;&#xa;+DUDE_ID: String                           &lt;&lt;static&gt;&gt;&#xa;+DUDE_COL: int                   &lt;&lt;static&gt;&gt;&#xa;+DUDE_ROW: int                               &lt;&lt;static&gt;&gt;&#xa;+DUDE_LIMIT: int                              &lt;&lt;static&gt;&gt;&#xa;+DUDE_ACTION_PERIOD: int             &lt;&lt;static&gt;&gt;&#xa;+DUDE_ANIMATION_PERIOD: int          &lt;&lt;static&gt;&gt;&#xa;&#xa;+HOUSE_KEY: String                           &lt;&lt;static&gt;&gt;&#xa;+HOUSE_NUM_PROPERTIES: int                 &lt;&lt;static&gt;&gt;&#xa;+HOUSE_ID: String                          &lt;&lt;static&gt;&gt;&#xa;+HOUSE_COL: int                        &lt;&lt;static&gt;&gt;&#xa;+HOUSE_ROW: int                       &lt;&lt;static&gt;&gt;&#xa;&#xa;+FAIRY_KEY: String                            &lt;&lt;static&gt;&gt;&#xa;+FAIRY_NUM_PROPERTIES: int         &lt;&lt;static&gt;&gt;&#xa;+ FAIRY_ID:  String                     &lt;&lt;static&gt;&gt;&#xa;+FAIRY_COL: int                    &lt;&lt;static&gt;&gt;&#xa;+FAIRY_ROW: int                                &lt;&lt;static&gt;&gt;&#xa;+FAIRY_ANIMATION_PERIOD: int      &lt;&lt;static&gt;&gt;&#xa;+FAIRY_ACTION_PERIOD: int      &lt;&lt;static&gt;&gt;&#xa;&#xa;+TREE_KEY: String                            &lt;&lt;static&gt;&gt;&#xa;+TREE_NUM_PROPERTIES: int                      &lt;&lt;static&gt;&gt;&#xa;+TREE_ID: String                            &lt;&lt;static&gt;&gt;&#xa;+TREE_COL: int                    &lt;&lt;static&gt;&gt;&#xa;+TREE_ROW: int                                &lt;&lt;static&gt;&gt;&#xa;+TREE_ANIMATION_PERIOD: int      &lt;&lt;static&gt;&gt;&#xa;+TREE_ACTION_PERIOD: int          &lt;&lt;static&gt;&gt;&#xa;+SAPLING_HEALTH: int                               &lt;&lt;static&gt;&gt;&#xa;" style="text;strokeColor=none;fillColor=none;align=left;verticalAlign=top;spacingLeft=4;spacingRight=4;overflow=hidden;rotatable=0;points=[[0,0.5],[1,0.5]];portConstraint=eastwest;fontColor=#000000;" parent="ReJkrMEg36XuSZIFQXkJ-38" vertex="1">
          <mxGeometry y="26" width="360" height="964" as="geometry" />
        </mxCell>
        <mxCell id="ReJkrMEg36XuSZIFQXkJ-40" value="" style="line;strokeWidth=1;fillColor=none;align=left;verticalAlign=middle;spacingTop=-1;spacingLeft=3;spacingRight=3;rotatable=0;labelPosition=right;points=[];portConstraint=eastwest;strokeColor=#FF6392;fontColor=#5AA9E6;" parent="ReJkrMEg36XuSZIFQXkJ-38" vertex="1">
          <mxGeometry y="990" width="360" height="8" as="geometry" />
        </mxCell>
        <mxCell id="ReJkrMEg36XuSZIFQXkJ-41" value="&#xa;+getNumFromRange() &lt;&lt;static&gt;&gt;&#xa;+processImageLine() &lt;&lt;static&gt;&gt;&#xa;+getImages() &lt;&lt;static&gt;&gt;&#xa;+setAlpha() &lt;&lt;static&gt;&gt;&#xa;+processLine() &lt;&lt;static&gt;&gt;&#xa;+parseBackground() &lt;&lt;static&gt;&gt;&#xa;+parseSapling() &lt;&lt;static&gt;&gt;&#xa;+parseDude() &lt;&lt;static&gt;&gt;&#xa;+parseFairy() &lt;&lt;static&gt;&gt;&#xa;+parseTree &lt;&lt;static&gt;&gt;&#xa;+parseObstacle() &lt;&lt;static&gt;&gt;&#xa;+parseHouse() &lt;&lt;static&gt;&gt;&#xa;+clamp() &lt;&lt;static&gt;&gt;&#xa;" style="text;strokeColor=none;fillColor=none;align=left;verticalAlign=top;spacingLeft=4;spacingRight=4;overflow=hidden;rotatable=0;points=[[0,0.5],[1,0.5]];portConstraint=eastwest;fontColor=#000000;" parent="ReJkrMEg36XuSZIFQXkJ-38" vertex="1">
          <mxGeometry y="998" width="360" height="212" as="geometry" />
        </mxCell>
        <mxCell id="ReJkrMEg36XuSZIFQXkJ-42" value="Background" style="swimlane;fontStyle=1;align=center;verticalAlign=top;childLayout=stackLayout;horizontal=1;startSize=26;horizontalStack=0;resizeParent=1;resizeParentMax=0;resizeLast=0;collapsible=1;marginBottom=0;hachureGap=4;pointerEvents=0;sketch=0;fontColor=#5AA9E6;strokeColor=#FF6392;fillColor=#FFE45E;" parent="1" vertex="1">
          <mxGeometry x="850" y="30" width="250" height="170" as="geometry" />
        </mxCell>
        <mxCell id="ReJkrMEg36XuSZIFQXkJ-43" value="-id: String&#xa;-images: List&lt;PImage&gt;&#xa;-imageIndex: int" style="text;strokeColor=none;fillColor=none;align=left;verticalAlign=top;spacingLeft=4;spacingRight=4;overflow=hidden;rotatable=0;points=[[0,0.5],[1,0.5]];portConstraint=eastwest;" parent="ReJkrMEg36XuSZIFQXkJ-42" vertex="1">
          <mxGeometry y="26" width="250" height="84" as="geometry" />
        </mxCell>
        <mxCell id="ReJkrMEg36XuSZIFQXkJ-44" value="" style="line;strokeWidth=1;fillColor=none;align=left;verticalAlign=middle;spacingTop=-1;spacingLeft=3;spacingRight=3;rotatable=0;labelPosition=right;points=[];portConstraint=eastwest;" parent="ReJkrMEg36XuSZIFQXkJ-42" vertex="1">
          <mxGeometry y="110" width="250" height="8" as="geometry" />
        </mxCell>
        <mxCell id="ReJkrMEg36XuSZIFQXkJ-45" value="TODO&#xa;+getCurrentImage(): PImage            " style="text;strokeColor=none;fillColor=none;align=left;verticalAlign=top;spacingLeft=4;spacingRight=4;overflow=hidden;rotatable=0;points=[[0,0.5],[1,0.5]];portConstraint=eastwest;" parent="ReJkrMEg36XuSZIFQXkJ-42" vertex="1">
          <mxGeometry y="118" width="250" height="52" as="geometry" />
        </mxCell>
        <mxCell id="ReJkrMEg36XuSZIFQXkJ-46" value="Tree" style="swimlane;fontStyle=1;align=center;verticalAlign=top;childLayout=stackLayout;horizontal=1;startSize=26;horizontalStack=0;resizeParent=1;resizeParentMax=0;resizeLast=0;collapsible=1;marginBottom=0;hachureGap=4;pointerEvents=0;sketch=0;fontColor=#5AA9E6;strokeColor=#FF6392;fillColor=#FFE45E;" parent="1" vertex="1">
          <mxGeometry x="1730" y="-120" width="160" height="120" as="geometry" />
        </mxCell>
        <mxCell id="ReJkrMEg36XuSZIFQXkJ-47" value="" style="line;strokeWidth=1;fillColor=none;align=left;verticalAlign=middle;spacingTop=-1;spacingLeft=3;spacingRight=3;rotatable=0;labelPosition=right;points=[];portConstraint=eastwest;" parent="ReJkrMEg36XuSZIFQXkJ-46" vertex="1">
          <mxGeometry y="26" width="160" height="8" as="geometry" />
        </mxCell>
        <mxCell id="ReJkrMEg36XuSZIFQXkJ-48" value="+transformPlant()&#xa;&#xa;" style="text;strokeColor=none;fillColor=none;align=left;verticalAlign=top;spacingLeft=4;spacingRight=4;overflow=hidden;rotatable=0;points=[[0,0.5],[1,0.5]];portConstraint=eastwest;" parent="ReJkrMEg36XuSZIFQXkJ-46" vertex="1">
          <mxGeometry y="34" width="160" height="86" as="geometry" />
        </mxCell>
        <mxCell id="ReJkrMEg36XuSZIFQXkJ-49" value="Viewport" style="swimlane;fontStyle=1;align=center;verticalAlign=top;childLayout=stackLayout;horizontal=1;startSize=26;horizontalStack=0;resizeParent=1;resizeParentMax=0;resizeLast=0;collapsible=1;marginBottom=0;hachureGap=4;pointerEvents=0;sketch=0;fontColor=#5AA9E6;strokeColor=#FF6392;fillColor=#FFE45E;" parent="1" vertex="1">
          <mxGeometry x="850" y="210" width="230" height="180" as="geometry" />
        </mxCell>
        <mxCell id="ReJkrMEg36XuSZIFQXkJ-50" value="-row: int&#xa;-col: int&#xa;-numRows: int&#xa;-numCols: int" style="text;strokeColor=none;fillColor=none;align=left;verticalAlign=top;spacingLeft=4;spacingRight=4;overflow=hidden;rotatable=0;points=[[0,0.5],[1,0.5]];portConstraint=eastwest;" parent="ReJkrMEg36XuSZIFQXkJ-49" vertex="1">
          <mxGeometry y="26" width="230" height="74" as="geometry" />
        </mxCell>
        <mxCell id="ReJkrMEg36XuSZIFQXkJ-51" value="" style="line;strokeWidth=1;fillColor=none;align=left;verticalAlign=middle;spacingTop=-1;spacingLeft=3;spacingRight=3;rotatable=0;labelPosition=right;points=[];portConstraint=eastwest;" parent="ReJkrMEg36XuSZIFQXkJ-49" vertex="1">
          <mxGeometry y="100" width="230" height="8" as="geometry" />
        </mxCell>
        <mxCell id="ReJkrMEg36XuSZIFQXkJ-52" value="TODO&#xa;+getRow() +getCol() +getNumRows()&#xa;+getNumCols() +viewportToWorld()&#xa;+contains() +worldToViewport()                                                     &#xa;" style="text;strokeColor=none;fillColor=none;align=left;verticalAlign=top;spacingLeft=4;spacingRight=4;overflow=hidden;rotatable=0;points=[[0,0.5],[1,0.5]];portConstraint=eastwest;" parent="ReJkrMEg36XuSZIFQXkJ-49" vertex="1">
          <mxGeometry y="108" width="230" height="72" as="geometry" />
        </mxCell>
        <mxCell id="ReJkrMEg36XuSZIFQXkJ-53" value="Event" style="swimlane;fontStyle=1;align=center;verticalAlign=top;childLayout=stackLayout;horizontal=1;startSize=26;horizontalStack=0;resizeParent=1;resizeParentMax=0;resizeLast=0;collapsible=1;marginBottom=0;hachureGap=4;pointerEvents=0;sketch=0;fontColor=#5AA9E6;strokeColor=#FF6392;fillColor=#FFE45E;" parent="1" vertex="1">
          <mxGeometry x="1240" y="714" width="165" height="170" as="geometry" />
        </mxCell>
        <mxCell id="ReJkrMEg36XuSZIFQXkJ-54" value="-action: Action&#xa;-time: long&#xa;-entity: Entity" style="text;strokeColor=none;fillColor=none;align=left;verticalAlign=top;spacingLeft=4;spacingRight=4;overflow=hidden;rotatable=0;points=[[0,0.5],[1,0.5]];portConstraint=eastwest;" parent="ReJkrMEg36XuSZIFQXkJ-53" vertex="1">
          <mxGeometry y="26" width="165" height="64" as="geometry" />
        </mxCell>
        <mxCell id="ReJkrMEg36XuSZIFQXkJ-55" value="" style="line;strokeWidth=1;fillColor=none;align=left;verticalAlign=middle;spacingTop=-1;spacingLeft=3;spacingRight=3;rotatable=0;labelPosition=right;points=[];portConstraint=eastwest;" parent="ReJkrMEg36XuSZIFQXkJ-53" vertex="1">
          <mxGeometry y="90" width="165" height="8" as="geometry" />
        </mxCell>
        <mxCell id="ReJkrMEg36XuSZIFQXkJ-56" value="TODO&#xa;+getEntity()&#xa;+getTime()&#xa;+getAction()" style="text;strokeColor=none;fillColor=none;align=left;verticalAlign=top;spacingLeft=4;spacingRight=4;overflow=hidden;rotatable=0;points=[[0,0.5],[1,0.5]];portConstraint=eastwest;" parent="ReJkrMEg36XuSZIFQXkJ-53" vertex="1">
          <mxGeometry y="98" width="165" height="72" as="geometry" />
        </mxCell>
        <mxCell id="ReJkrMEg36XuSZIFQXkJ-57" value="Point" style="swimlane;fontStyle=1;align=center;verticalAlign=top;childLayout=stackLayout;horizontal=1;startSize=26;horizontalStack=0;resizeParent=1;resizeParentMax=0;resizeLast=0;collapsible=1;marginBottom=0;hachureGap=4;pointerEvents=0;sketch=0;fontColor=#5AA9E6;strokeColor=#FF6392;fillColor=#FFE45E;" parent="1" vertex="1">
          <mxGeometry x="1320" y="260" width="160" height="150" as="geometry" />
        </mxCell>
        <mxCell id="ReJkrMEg36XuSZIFQXkJ-58" value="-x: int&#xa;-y: int" style="text;strokeColor=none;fillColor=none;align=left;verticalAlign=top;spacingLeft=4;spacingRight=4;overflow=hidden;rotatable=0;points=[[0,0.5],[1,0.5]];portConstraint=eastwest;" parent="ReJkrMEg36XuSZIFQXkJ-57" vertex="1">
          <mxGeometry y="26" width="160" height="34" as="geometry" />
        </mxCell>
        <mxCell id="ReJkrMEg36XuSZIFQXkJ-59" value="" style="line;strokeWidth=1;fillColor=none;align=left;verticalAlign=middle;spacingTop=-1;spacingLeft=3;spacingRight=3;rotatable=0;labelPosition=right;points=[];portConstraint=eastwest;" parent="ReJkrMEg36XuSZIFQXkJ-57" vertex="1">
          <mxGeometry y="60" width="160" height="8" as="geometry" />
        </mxCell>
        <mxCell id="ReJkrMEg36XuSZIFQXkJ-60" value="+toString(): String&#xa;+equals(): boolean&#xa;+getX() +getY() +hashCode()&#xa;+adjacent() +distanceSquared()&#xa;+nearestEntity()&#xa;" style="text;strokeColor=none;fillColor=none;align=left;verticalAlign=top;spacingLeft=4;spacingRight=4;overflow=hidden;rotatable=0;points=[[0,0.5],[1,0.5]];portConstraint=eastwest;" parent="ReJkrMEg36XuSZIFQXkJ-57" vertex="1">
          <mxGeometry y="68" width="160" height="82" as="geometry" />
        </mxCell>
        <mxCell id="ReJkrMEg36XuSZIFQXkJ-61" value="Activity" style="swimlane;fontStyle=1;align=center;verticalAlign=top;childLayout=stackLayout;horizontal=1;startSize=26;horizontalStack=0;resizeParent=1;resizeParentMax=0;resizeLast=0;collapsible=1;marginBottom=0;hachureGap=4;pointerEvents=0;sketch=0;fontColor=#5AA9E6;strokeColor=#FF6392;fillColor=#FFE45E;" parent="1" vertex="1">
          <mxGeometry x="1490" y="483.99999999999994" width="160" height="200" as="geometry" />
        </mxCell>
        <mxCell id="ReJkrMEg36XuSZIFQXkJ-62" value="&#xa;&#xa;-world: WorldModel&#xa;-imageStore: ImageStore&#xa;" style="text;strokeColor=none;fillColor=none;align=left;verticalAlign=top;spacingLeft=4;spacingRight=4;overflow=hidden;rotatable=0;points=[[0,0.5],[1,0.5]];portConstraint=eastwest;" parent="ReJkrMEg36XuSZIFQXkJ-61" vertex="1">
          <mxGeometry y="26" width="160" height="124" as="geometry" />
        </mxCell>
        <mxCell id="ReJkrMEg36XuSZIFQXkJ-63" value="" style="line;strokeWidth=1;fillColor=none;align=left;verticalAlign=middle;spacingTop=-1;spacingLeft=3;spacingRight=3;rotatable=0;labelPosition=right;points=[];portConstraint=eastwest;" parent="ReJkrMEg36XuSZIFQXkJ-61" vertex="1">
          <mxGeometry y="150" width="160" height="8" as="geometry" />
        </mxCell>
        <mxCell id="ReJkrMEg36XuSZIFQXkJ-64" value="TODO&#xa;+executeAction()    &#xa;&#xa;&#xa;                  " style="text;strokeColor=none;fillColor=none;align=left;verticalAlign=top;spacingLeft=4;spacingRight=4;overflow=hidden;rotatable=0;points=[[0,0.5],[1,0.5]];portConstraint=eastwest;" parent="ReJkrMEg36XuSZIFQXkJ-61" vertex="1">
          <mxGeometry y="158" width="160" height="42" as="geometry" />
        </mxCell>
        <mxCell id="ReJkrMEg36XuSZIFQXkJ-65" value="" style="endArrow=block;dashed=1;endFill=0;endSize=12;html=1;rounded=0;exitX=0.25;exitY=0;exitDx=0;exitDy=0;entryX=0.105;entryY=1.011;entryDx=0;entryDy=0;entryPerimeter=0;" parent="1" source="ReJkrMEg36XuSZIFQXkJ-61" target="ReJkrMEg36XuSZIFQXkJ-111" edge="1">
          <mxGeometry width="160" relative="1" as="geometry">
            <mxPoint x="1550" y="410" as="sourcePoint" />
            <mxPoint x="1620" y="345" as="targetPoint" />
          </mxGeometry>
        </mxCell>
        <mxCell id="ReJkrMEg36XuSZIFQXkJ-66" value="" style="endArrow=block;dashed=1;endFill=0;endSize=12;html=1;rounded=0;exitX=0.628;exitY=-0.004;exitDx=0;exitDy=0;exitPerimeter=0;entryX=0.912;entryY=1.056;entryDx=0;entryDy=0;entryPerimeter=0;" parent="1" source="ReJkrMEg36XuSZIFQXkJ-125" target="ReJkrMEg36XuSZIFQXkJ-111" edge="1">
          <mxGeometry width="160" relative="1" as="geometry">
            <mxPoint x="1809.0400000000004" y="484.7280000000005" as="sourcePoint" />
            <mxPoint x="1730" y="345" as="targetPoint" />
          </mxGeometry>
        </mxCell>
        <mxCell id="ReJkrMEg36XuSZIFQXkJ-67" value="Sapling" style="swimlane;fontStyle=1;align=center;verticalAlign=top;childLayout=stackLayout;horizontal=1;startSize=26;horizontalStack=0;resizeParent=1;resizeParentMax=0;resizeLast=0;collapsible=1;marginBottom=0;hachureGap=4;pointerEvents=0;sketch=0;fontColor=#5AA9E6;strokeColor=#FF6392;fillColor=#FFE45E;" parent="1" vertex="1">
          <mxGeometry x="1910" y="-120" width="160" height="120" as="geometry" />
        </mxCell>
        <mxCell id="ReJkrMEg36XuSZIFQXkJ-68" value="-healthLimit:int" style="text;strokeColor=none;fillColor=none;align=left;verticalAlign=top;spacingLeft=4;spacingRight=4;overflow=hidden;rotatable=0;points=[[0,0.5],[1,0.5]];portConstraint=eastwest;" parent="ReJkrMEg36XuSZIFQXkJ-67" vertex="1">
          <mxGeometry y="26" width="160" height="34" as="geometry" />
        </mxCell>
        <mxCell id="ReJkrMEg36XuSZIFQXkJ-69" value="" style="line;strokeWidth=1;fillColor=none;align=left;verticalAlign=middle;spacingTop=-1;spacingLeft=3;spacingRight=3;rotatable=0;labelPosition=right;points=[];portConstraint=eastwest;" parent="ReJkrMEg36XuSZIFQXkJ-67" vertex="1">
          <mxGeometry y="60" width="160" height="8" as="geometry" />
        </mxCell>
        <mxCell id="ReJkrMEg36XuSZIFQXkJ-70" value="+executeActivity()&#xa;+transformPlant()&#xa;&#xa;" style="text;strokeColor=none;fillColor=none;align=left;verticalAlign=top;spacingLeft=4;spacingRight=4;overflow=hidden;rotatable=0;points=[[0,0.5],[1,0.5]];portConstraint=eastwest;" parent="ReJkrMEg36XuSZIFQXkJ-67" vertex="1">
          <mxGeometry y="68" width="160" height="52" as="geometry" />
        </mxCell>
        <mxCell id="ReJkrMEg36XuSZIFQXkJ-71" value="Stump" style="swimlane;fontStyle=1;align=center;verticalAlign=top;childLayout=stackLayout;horizontal=1;startSize=26;horizontalStack=0;resizeParent=1;resizeParentMax=0;resizeLast=0;collapsible=1;marginBottom=0;hachureGap=4;pointerEvents=0;sketch=0;fontColor=#5AA9E6;strokeColor=#FF6392;fillColor=#FFE45E;" parent="1" vertex="1">
          <mxGeometry x="3010" y="-120" width="160" height="34" as="geometry" />
        </mxCell>
        <mxCell id="ReJkrMEg36XuSZIFQXkJ-72" value="" style="line;strokeWidth=1;fillColor=none;align=left;verticalAlign=middle;spacingTop=-1;spacingLeft=3;spacingRight=3;rotatable=0;labelPosition=right;points=[];portConstraint=eastwest;" parent="ReJkrMEg36XuSZIFQXkJ-71" vertex="1">
          <mxGeometry y="26" width="160" height="8" as="geometry" />
        </mxCell>
        <mxCell id="ReJkrMEg36XuSZIFQXkJ-73" value="Fairy" style="swimlane;fontStyle=1;align=center;verticalAlign=top;childLayout=stackLayout;horizontal=1;startSize=26;horizontalStack=0;resizeParent=1;resizeParentMax=0;resizeLast=0;collapsible=1;marginBottom=0;hachureGap=4;pointerEvents=0;sketch=0;fontColor=#5AA9E6;strokeColor=#FF6392;fillColor=#FFE45E;" parent="1" vertex="1">
          <mxGeometry x="2490" y="-120" width="160" height="120" as="geometry" />
        </mxCell>
        <mxCell id="ReJkrMEg36XuSZIFQXkJ-74" value="" style="line;strokeWidth=1;fillColor=none;align=left;verticalAlign=middle;spacingTop=-1;spacingLeft=3;spacingRight=3;rotatable=0;labelPosition=right;points=[];portConstraint=eastwest;" parent="ReJkrMEg36XuSZIFQXkJ-73" vertex="1">
          <mxGeometry y="26" width="160" height="8" as="geometry" />
        </mxCell>
        <mxCell id="ReJkrMEg36XuSZIFQXkJ-75" value="+executeActivity()&#xa;+nextPositionFairy()&#xa;+moveToFairy()&#xa;&#xa;" style="text;strokeColor=none;fillColor=none;align=left;verticalAlign=top;spacingLeft=4;spacingRight=4;overflow=hidden;rotatable=0;points=[[0,0.5],[1,0.5]];portConstraint=eastwest;" parent="ReJkrMEg36XuSZIFQXkJ-73" vertex="1">
          <mxGeometry y="34" width="160" height="86" as="geometry" />
        </mxCell>
        <mxCell id="ReJkrMEg36XuSZIFQXkJ-76" value="Obstacle" style="swimlane;fontStyle=1;align=center;verticalAlign=top;childLayout=stackLayout;horizontal=1;startSize=26;horizontalStack=0;resizeParent=1;resizeParentMax=0;resizeLast=0;collapsible=1;marginBottom=0;hachureGap=4;pointerEvents=0;sketch=0;fontColor=#5AA9E6;strokeColor=#FF6392;fillColor=#FFE45E;" parent="1" vertex="1">
          <mxGeometry x="2750" y="-120" width="160" height="34" as="geometry" />
        </mxCell>
        <mxCell id="ReJkrMEg36XuSZIFQXkJ-77" value="" style="line;strokeWidth=1;fillColor=none;align=left;verticalAlign=middle;spacingTop=-1;spacingLeft=3;spacingRight=3;rotatable=0;labelPosition=right;points=[];portConstraint=eastwest;" parent="ReJkrMEg36XuSZIFQXkJ-76" vertex="1">
          <mxGeometry y="26" width="160" height="8" as="geometry" />
        </mxCell>
        <mxCell id="ReJkrMEg36XuSZIFQXkJ-78" value="Dude_Not_Full" style="swimlane;fontStyle=1;align=center;verticalAlign=top;childLayout=stackLayout;horizontal=1;startSize=26;horizontalStack=0;resizeParent=1;resizeParentMax=0;resizeLast=0;collapsible=1;marginBottom=0;hachureGap=4;pointerEvents=0;sketch=0;fontColor=#5AA9E6;strokeColor=#FF6392;fillColor=#FFE45E;" parent="1" vertex="1">
          <mxGeometry x="2110" y="-120" width="160" height="120" as="geometry" />
        </mxCell>
        <mxCell id="ReJkrMEg36XuSZIFQXkJ-79" value="-resourceCount: int&#xa;" style="text;strokeColor=none;fillColor=none;align=left;verticalAlign=top;spacingLeft=4;spacingRight=4;overflow=hidden;rotatable=0;points=[[0,0.5],[1,0.5]];portConstraint=eastwest;" parent="ReJkrMEg36XuSZIFQXkJ-78" vertex="1">
          <mxGeometry y="26" width="160" height="34" as="geometry" />
        </mxCell>
        <mxCell id="ReJkrMEg36XuSZIFQXkJ-80" value="" style="line;strokeWidth=1;fillColor=none;align=left;verticalAlign=middle;spacingTop=-1;spacingLeft=3;spacingRight=3;rotatable=0;labelPosition=right;points=[];portConstraint=eastwest;" parent="ReJkrMEg36XuSZIFQXkJ-78" vertex="1">
          <mxGeometry y="60" width="160" height="8" as="geometry" />
        </mxCell>
        <mxCell id="ReJkrMEg36XuSZIFQXkJ-81" value="+executeActivity()&#xa;+transformNotFull()&#xa;+_moveToDudeHelper()&#xa;" style="text;strokeColor=none;fillColor=none;align=left;verticalAlign=top;spacingLeft=4;spacingRight=4;overflow=hidden;rotatable=0;points=[[0,0.5],[1,0.5]];portConstraint=eastwest;" parent="ReJkrMEg36XuSZIFQXkJ-78" vertex="1">
          <mxGeometry y="68" width="160" height="52" as="geometry" />
        </mxCell>
        <mxCell id="ReJkrMEg36XuSZIFQXkJ-82" value="Dude_Full" style="swimlane;fontStyle=1;align=center;verticalAlign=top;childLayout=stackLayout;horizontal=1;startSize=26;horizontalStack=0;resizeParent=1;resizeParentMax=0;resizeLast=0;collapsible=1;marginBottom=0;hachureGap=4;pointerEvents=0;sketch=0;fontColor=#5AA9E6;strokeColor=#FF6392;fillColor=#FFE45E;" parent="1" vertex="1">
          <mxGeometry x="2300" y="-120" width="160" height="120" as="geometry" />
        </mxCell>
        <mxCell id="ReJkrMEg36XuSZIFQXkJ-83" value="" style="line;strokeWidth=1;fillColor=none;align=left;verticalAlign=middle;spacingTop=-1;spacingLeft=3;spacingRight=3;rotatable=0;labelPosition=right;points=[];portConstraint=eastwest;" parent="ReJkrMEg36XuSZIFQXkJ-82" vertex="1">
          <mxGeometry y="26" width="160" height="8" as="geometry" />
        </mxCell>
        <mxCell id="ReJkrMEg36XuSZIFQXkJ-84" value="+executeActivity()&#xa;+_moveToDudeHelper()&#xa;+transformFull" style="text;strokeColor=none;fillColor=none;align=left;verticalAlign=top;spacingLeft=4;spacingRight=4;overflow=hidden;rotatable=0;points=[[0,0.5],[1,0.5]];portConstraint=eastwest;" parent="ReJkrMEg36XuSZIFQXkJ-82" vertex="1">
          <mxGeometry y="34" width="160" height="86" as="geometry" />
        </mxCell>
        <mxCell id="ReJkrMEg36XuSZIFQXkJ-85" value="House" style="swimlane;fontStyle=1;align=center;verticalAlign=top;childLayout=stackLayout;horizontal=1;startSize=26;horizontalStack=0;resizeParent=1;resizeParentMax=0;resizeLast=0;collapsible=1;marginBottom=0;hachureGap=4;pointerEvents=0;sketch=0;fontColor=#5AA9E6;strokeColor=#FF6392;fillColor=#FFE45E;" parent="1" vertex="1">
          <mxGeometry x="3200" y="-120" width="160" height="34" as="geometry" />
        </mxCell>
        <mxCell id="ReJkrMEg36XuSZIFQXkJ-86" value="" style="line;strokeWidth=1;fillColor=none;align=left;verticalAlign=middle;spacingTop=-1;spacingLeft=3;spacingRight=3;rotatable=0;labelPosition=right;points=[];portConstraint=eastwest;" parent="ReJkrMEg36XuSZIFQXkJ-85" vertex="1">
          <mxGeometry y="26" width="160" height="8" as="geometry" />
        </mxCell>
        <mxCell id="ReJkrMEg36XuSZIFQXkJ-87" value="Extends" style="endArrow=block;endSize=16;endFill=0;html=1;rounded=0;exitX=1;exitY=0;exitDx=0;exitDy=0;entryX=-0.009;entryY=0.029;entryDx=0;entryDy=0;entryPerimeter=0;" parent="1" source="ReJkrMEg36XuSZIFQXkJ-97" target="ReJkrMEg36XuSZIFQXkJ-93" edge="1">
          <mxGeometry width="160" relative="1" as="geometry">
            <mxPoint x="2782.5199999999995" y="-316.79999999999995" as="sourcePoint" />
            <mxPoint x="2756.7199999999993" y="-603.1640000000002" as="targetPoint" />
          </mxGeometry>
        </mxCell>
        <mxCell id="ReJkrMEg36XuSZIFQXkJ-88" value="Extends" style="endArrow=block;endSize=16;endFill=0;html=1;rounded=0;exitX=1;exitY=0;exitDx=0;exitDy=0;entryX=0;entryY=0;entryDx=0;entryDy=0;" parent="1" source="ReJkrMEg36XuSZIFQXkJ-101" target="ReJkrMEg36XuSZIFQXkJ-97" edge="1">
          <mxGeometry width="160" relative="1" as="geometry">
            <mxPoint x="2753.5999999999995" y="-237.5999999999999" as="sourcePoint" />
            <mxPoint x="2771" y="-331.9000000000001" as="targetPoint" />
          </mxGeometry>
        </mxCell>
        <mxCell id="ReJkrMEg36XuSZIFQXkJ-89" value="Extends" style="endArrow=block;endSize=16;endFill=0;html=1;rounded=0;entryX=0;entryY=0;entryDx=0;entryDy=0;exitX=1;exitY=0;exitDx=0;exitDy=0;" parent="1" source="ReJkrMEg36XuSZIFQXkJ-105" target="ReJkrMEg36XuSZIFQXkJ-101" edge="1">
          <mxGeometry width="160" relative="1" as="geometry">
            <mxPoint x="2833.6000000000004" y="-57.59999999999991" as="sourcePoint" />
            <mxPoint x="2900" y="-70" as="targetPoint" />
          </mxGeometry>
        </mxCell>
        <mxCell id="ReJkrMEg36XuSZIFQXkJ-90" value="Factory" style="swimlane;fontStyle=1;align=center;verticalAlign=top;childLayout=stackLayout;horizontal=1;startSize=26;horizontalStack=0;resizeParent=1;resizeParentMax=0;resizeLast=0;collapsible=1;marginBottom=0;hachureGap=4;pointerEvents=0;sketch=0;fontColor=#5AA9E6;strokeColor=#FF6392;fillColor=#FFE45E;" parent="1" vertex="1">
          <mxGeometry x="940" y="1100" width="180" height="160" as="geometry" />
        </mxCell>
        <mxCell id="ReJkrMEg36XuSZIFQXkJ-91" value="" style="line;strokeWidth=1;fillColor=none;align=left;verticalAlign=middle;spacingTop=-1;spacingLeft=3;spacingRight=3;rotatable=0;labelPosition=right;points=[];portConstraint=eastwest;" parent="ReJkrMEg36XuSZIFQXkJ-90" vertex="1">
          <mxGeometry y="26" width="180" height="8" as="geometry" />
        </mxCell>
        <mxCell id="ReJkrMEg36XuSZIFQXkJ-92" value="+createHouse() &lt;&lt;static&gt;&gt;&#xa;+createObstacle() &lt;&lt;static&gt;&gt;&#xa;+createTree() &lt;&lt;static&gt;&gt;&#xa;+createStump() &lt;&lt;static&gt;&gt;&#xa;+createSapling() &lt;&lt;static&gt;&gt;&#xa;+createFairy() &lt;&lt;static&gt;&gt;&#xa;+createDudeNotFull() &lt;&lt;static&gt;&gt;&#xa;+createDudeFull() &lt;&lt;static&gt;&gt;&#xa;" style="text;strokeColor=none;fillColor=none;align=left;verticalAlign=top;spacingLeft=4;spacingRight=4;overflow=hidden;rotatable=0;points=[[0,0.5],[1,0.5]];portConstraint=eastwest;" parent="ReJkrMEg36XuSZIFQXkJ-90" vertex="1">
          <mxGeometry y="34" width="180" height="126" as="geometry" />
        </mxCell>
        <mxCell id="ReJkrMEg36XuSZIFQXkJ-93" value="Entity &lt;&lt;Abstract&gt;&gt;" style="swimlane;fontStyle=1;align=center;verticalAlign=top;childLayout=stackLayout;horizontal=1;startSize=26;horizontalStack=0;resizeParent=1;resizeParentMax=0;resizeLast=0;collapsible=1;marginBottom=0;hachureGap=4;pointerEvents=0;sketch=0;fontColor=#5AA9E6;strokeColor=#FF6392;fillColor=#FFE45E;" parent="1" vertex="1">
          <mxGeometry x="3080" y="-770" width="160" height="340" as="geometry" />
        </mxCell>
        <mxCell id="ReJkrMEg36XuSZIFQXkJ-94" value="&#xa;-id: String&#xa;-position: Point&#xa;-images: List&lt;PImage&gt;&#xa;-imageIndex: int&#xa;" style="text;strokeColor=none;fillColor=none;align=left;verticalAlign=top;spacingLeft=4;spacingRight=4;overflow=hidden;rotatable=0;points=[[0,0.5],[1,0.5]];portConstraint=eastwest;" parent="ReJkrMEg36XuSZIFQXkJ-93" vertex="1">
          <mxGeometry y="26" width="160" height="144" as="geometry" />
        </mxCell>
        <mxCell id="ReJkrMEg36XuSZIFQXkJ-95" value="" style="line;strokeWidth=1;fillColor=none;align=left;verticalAlign=middle;spacingTop=-1;spacingLeft=3;spacingRight=3;rotatable=0;labelPosition=right;points=[];portConstraint=eastwest;" parent="ReJkrMEg36XuSZIFQXkJ-93" vertex="1">
          <mxGeometry y="170" width="160" height="8" as="geometry" />
        </mxCell>
        <mxCell id="ReJkrMEg36XuSZIFQXkJ-96" value=" +getId()                                    &#xa; +getPosition() &#xa;+setPosition()&#xa;+getCurrentImage()&#xa;+getImageIndex()&#xa;+setImageIndex()&#xa;+getImages()&#xa;&#xa;" style="text;strokeColor=none;fillColor=none;align=left;verticalAlign=top;spacingLeft=4;spacingRight=4;overflow=hidden;rotatable=0;points=[[0,0.5],[1,0.5]];portConstraint=eastwest;" parent="ReJkrMEg36XuSZIFQXkJ-93" vertex="1">
          <mxGeometry y="178" width="160" height="162" as="geometry" />
        </mxCell>
        <mxCell id="ReJkrMEg36XuSZIFQXkJ-97" value="AnimatingEntity &lt;&lt;Abstract&gt;&gt;" style="swimlane;fontStyle=1;align=center;verticalAlign=top;childLayout=stackLayout;horizontal=1;startSize=26;horizontalStack=0;resizeParent=1;resizeParentMax=0;resizeLast=0;collapsible=1;marginBottom=0;hachureGap=4;pointerEvents=0;sketch=0;fontColor=#5AA9E6;strokeColor=#FF6392;fillColor=#FFE45E;" parent="1" vertex="1">
          <mxGeometry x="2730" y="-760" width="190" height="170" as="geometry" />
        </mxCell>
        <mxCell id="ReJkrMEg36XuSZIFQXkJ-98" value="-animationPeriod: int" style="text;strokeColor=none;fillColor=none;align=left;verticalAlign=top;spacingLeft=4;spacingRight=4;overflow=hidden;rotatable=0;points=[[0,0.5],[1,0.5]];portConstraint=eastwest;" parent="ReJkrMEg36XuSZIFQXkJ-97" vertex="1">
          <mxGeometry y="26" width="190" height="44" as="geometry" />
        </mxCell>
        <mxCell id="ReJkrMEg36XuSZIFQXkJ-99" value="" style="line;strokeWidth=1;fillColor=none;align=left;verticalAlign=middle;spacingTop=-1;spacingLeft=3;spacingRight=3;rotatable=0;labelPosition=right;points=[];portConstraint=eastwest;" parent="ReJkrMEg36XuSZIFQXkJ-97" vertex="1">
          <mxGeometry y="70" width="190" height="8" as="geometry" />
        </mxCell>
        <mxCell id="ReJkrMEg36XuSZIFQXkJ-100" value="+getAnimationPeriod()&#xa;+nextImage()&#xa;+scheduleActions()" style="text;strokeColor=none;fillColor=none;align=left;verticalAlign=top;spacingLeft=4;spacingRight=4;overflow=hidden;rotatable=0;points=[[0,0.5],[1,0.5]];portConstraint=eastwest;" parent="ReJkrMEg36XuSZIFQXkJ-97" vertex="1">
          <mxGeometry y="78" width="190" height="92" as="geometry" />
        </mxCell>
        <mxCell id="ReJkrMEg36XuSZIFQXkJ-101" value="ActingEntity &lt;&lt;Abstract&gt;&gt;" style="swimlane;fontStyle=1;align=center;verticalAlign=top;childLayout=stackLayout;horizontal=1;startSize=26;horizontalStack=0;resizeParent=1;resizeParentMax=0;resizeLast=0;collapsible=1;marginBottom=0;hachureGap=4;pointerEvents=0;sketch=0;fontColor=#5AA9E6;strokeColor=#FF6392;fillColor=#FFE45E;" parent="1" vertex="1">
          <mxGeometry x="2430" y="-760" width="190" height="170" as="geometry" />
        </mxCell>
        <mxCell id="ReJkrMEg36XuSZIFQXkJ-102" value="-actionPeriod: int" style="text;strokeColor=none;fillColor=none;align=left;verticalAlign=top;spacingLeft=4;spacingRight=4;overflow=hidden;rotatable=0;points=[[0,0.5],[1,0.5]];portConstraint=eastwest;" parent="ReJkrMEg36XuSZIFQXkJ-101" vertex="1">
          <mxGeometry y="26" width="190" height="44" as="geometry" />
        </mxCell>
        <mxCell id="ReJkrMEg36XuSZIFQXkJ-103" value="" style="line;strokeWidth=1;fillColor=none;align=left;verticalAlign=middle;spacingTop=-1;spacingLeft=3;spacingRight=3;rotatable=0;labelPosition=right;points=[];portConstraint=eastwest;" parent="ReJkrMEg36XuSZIFQXkJ-101" vertex="1">
          <mxGeometry y="70" width="190" height="8" as="geometry" />
        </mxCell>
        <mxCell id="ReJkrMEg36XuSZIFQXkJ-104" value="+getActionPeriod()&#xa;+executeActivity() &lt;&lt;abstract&gt;&gt;&#xa;+scheduleActions()" style="text;strokeColor=none;fillColor=none;align=left;verticalAlign=top;spacingLeft=4;spacingRight=4;overflow=hidden;rotatable=0;points=[[0,0.5],[1,0.5]];portConstraint=eastwest;" parent="ReJkrMEg36XuSZIFQXkJ-101" vertex="1">
          <mxGeometry y="78" width="190" height="92" as="geometry" />
        </mxCell>
        <mxCell id="ReJkrMEg36XuSZIFQXkJ-105" value="PlantEntity &lt;&lt;Abstract&gt;&gt;" style="swimlane;fontStyle=1;align=center;verticalAlign=top;childLayout=stackLayout;horizontal=1;startSize=26;horizontalStack=0;resizeParent=1;resizeParentMax=0;resizeLast=0;collapsible=1;marginBottom=0;hachureGap=4;pointerEvents=0;sketch=0;fontColor=#5AA9E6;strokeColor=#FF6392;fillColor=#FFE45E;" parent="1" vertex="1">
          <mxGeometry x="1900" y="-760" width="190" height="170" as="geometry" />
        </mxCell>
        <mxCell id="ReJkrMEg36XuSZIFQXkJ-106" value="-health:int" style="text;strokeColor=none;fillColor=none;align=left;verticalAlign=top;spacingLeft=4;spacingRight=4;overflow=hidden;rotatable=0;points=[[0,0.5],[1,0.5]];portConstraint=eastwest;" parent="ReJkrMEg36XuSZIFQXkJ-105" vertex="1">
          <mxGeometry y="26" width="190" height="44" as="geometry" />
        </mxCell>
        <mxCell id="ReJkrMEg36XuSZIFQXkJ-107" value="" style="line;strokeWidth=1;fillColor=none;align=left;verticalAlign=middle;spacingTop=-1;spacingLeft=3;spacingRight=3;rotatable=0;labelPosition=right;points=[];portConstraint=eastwest;" parent="ReJkrMEg36XuSZIFQXkJ-105" vertex="1">
          <mxGeometry y="70" width="190" height="8" as="geometry" />
        </mxCell>
        <mxCell id="ReJkrMEg36XuSZIFQXkJ-108" value="+transformPlant() &#xa;+getHealth()&#xa;+setHealth()&#xa;+executeActivity()" style="text;strokeColor=none;fillColor=none;align=left;verticalAlign=top;spacingLeft=4;spacingRight=4;overflow=hidden;rotatable=0;points=[[0,0.5],[1,0.5]];portConstraint=eastwest;" parent="ReJkrMEg36XuSZIFQXkJ-105" vertex="1">
          <mxGeometry y="78" width="190" height="92" as="geometry" />
        </mxCell>
        <mxCell id="ReJkrMEg36XuSZIFQXkJ-109" value="Action &lt;&lt;Interface&gt;&gt;" style="swimlane;fontStyle=1;align=center;verticalAlign=top;childLayout=stackLayout;horizontal=1;startSize=26;horizontalStack=0;resizeParent=1;resizeParentMax=0;resizeLast=0;collapsible=1;marginBottom=0;hachureGap=4;pointerEvents=0;sketch=0;fontColor=#5AA9E6;strokeColor=#FF6392;fillColor=#FFE45E;" parent="1" vertex="1">
          <mxGeometry x="1580" y="260" width="190" height="126" as="geometry" />
        </mxCell>
        <mxCell id="ReJkrMEg36XuSZIFQXkJ-110" value="" style="line;strokeWidth=1;fillColor=none;align=left;verticalAlign=middle;spacingTop=-1;spacingLeft=3;spacingRight=3;rotatable=0;labelPosition=right;points=[];portConstraint=eastwest;" parent="ReJkrMEg36XuSZIFQXkJ-109" vertex="1">
          <mxGeometry y="26" width="190" height="8" as="geometry" />
        </mxCell>
        <mxCell id="ReJkrMEg36XuSZIFQXkJ-111" value="TODO&#xa;+executeAction() &#xa; &#xa; &#xa;&#xa;                  " style="text;strokeColor=none;fillColor=none;align=left;verticalAlign=top;spacingLeft=4;spacingRight=4;overflow=hidden;rotatable=0;points=[[0,0.5],[1,0.5]];portConstraint=eastwest;" parent="ReJkrMEg36XuSZIFQXkJ-109" vertex="1">
          <mxGeometry y="34" width="190" height="92" as="geometry" />
        </mxCell>
        <mxCell id="ReJkrMEg36XuSZIFQXkJ-112" value="DudeEntity &lt;&lt;Abstract&gt;&gt;" style="swimlane;fontStyle=1;align=center;verticalAlign=top;childLayout=stackLayout;horizontal=1;startSize=26;horizontalStack=0;resizeParent=1;resizeParentMax=0;resizeLast=0;collapsible=1;marginBottom=0;hachureGap=4;pointerEvents=0;sketch=0;fontColor=#5AA9E6;strokeColor=#FF6392;fillColor=#FFE45E;" parent="1" vertex="1">
          <mxGeometry x="2140" y="-590" width="210" height="170" as="geometry" />
        </mxCell>
        <mxCell id="ReJkrMEg36XuSZIFQXkJ-113" value="-resourceLimit: int" style="text;strokeColor=none;fillColor=none;align=left;verticalAlign=top;spacingLeft=4;spacingRight=4;overflow=hidden;rotatable=0;points=[[0,0.5],[1,0.5]];portConstraint=eastwest;" parent="ReJkrMEg36XuSZIFQXkJ-112" vertex="1">
          <mxGeometry y="26" width="210" height="44" as="geometry" />
        </mxCell>
        <mxCell id="ReJkrMEg36XuSZIFQXkJ-114" value="" style="line;strokeWidth=1;fillColor=none;align=left;verticalAlign=middle;spacingTop=-1;spacingLeft=3;spacingRight=3;rotatable=0;labelPosition=right;points=[];portConstraint=eastwest;" parent="ReJkrMEg36XuSZIFQXkJ-112" vertex="1">
          <mxGeometry y="70" width="210" height="8" as="geometry" />
        </mxCell>
        <mxCell id="ReJkrMEg36XuSZIFQXkJ-115" value="+nextPositionDude()&#xa;+getResourceLimit&#xa;+moveToDude()&#xa;+transformDude()&#xa;+_moveToDudeHelper() &lt;&lt;abstract&gt;&gt;&#xa;" style="text;strokeColor=none;fillColor=none;align=left;verticalAlign=top;spacingLeft=4;spacingRight=4;overflow=hidden;rotatable=0;points=[[0,0.5],[1,0.5]];portConstraint=eastwest;" parent="ReJkrMEg36XuSZIFQXkJ-112" vertex="1">
          <mxGeometry y="78" width="210" height="92" as="geometry" />
        </mxCell>
        <mxCell id="ReJkrMEg36XuSZIFQXkJ-116" value="Extends" style="endArrow=block;endSize=16;endFill=0;html=1;rounded=0;entryX=-0.008;entryY=1.001;entryDx=0;entryDy=0;entryPerimeter=0;exitX=1;exitY=0;exitDx=0;exitDy=0;" parent="1" source="ReJkrMEg36XuSZIFQXkJ-112" target="ReJkrMEg36XuSZIFQXkJ-104" edge="1">
          <mxGeometry width="160" relative="1" as="geometry">
            <mxPoint x="2695" y="20" as="sourcePoint" />
            <mxPoint x="2684.45" y="-66.41200000000003" as="targetPoint" />
          </mxGeometry>
        </mxCell>
        <mxCell id="ReJkrMEg36XuSZIFQXkJ-117" value="Extends" style="endArrow=block;endSize=16;endFill=0;html=1;rounded=0;exitX=0.095;exitY=-0.017;exitDx=0;exitDy=0;exitPerimeter=0;entryX=0.135;entryY=1.048;entryDx=0;entryDy=0;entryPerimeter=0;" parent="1" source="ReJkrMEg36XuSZIFQXkJ-78" target="ReJkrMEg36XuSZIFQXkJ-115" edge="1">
          <mxGeometry width="160" relative="1" as="geometry">
            <mxPoint x="2540" y="220" as="sourcePoint" />
            <mxPoint x="2700" y="220" as="targetPoint" />
          </mxGeometry>
        </mxCell>
        <mxCell id="ReJkrMEg36XuSZIFQXkJ-118" value="Extends" style="endArrow=block;endSize=16;endFill=0;html=1;rounded=0;exitX=0.848;exitY=-0.011;exitDx=0;exitDy=0;exitPerimeter=0;entryX=0.915;entryY=1.005;entryDx=0;entryDy=0;entryPerimeter=0;" parent="1" source="ReJkrMEg36XuSZIFQXkJ-82" target="ReJkrMEg36XuSZIFQXkJ-115" edge="1">
          <mxGeometry width="160" relative="1" as="geometry">
            <mxPoint x="2702.4800000000005" y="330.48" as="sourcePoint" />
            <mxPoint x="2517.96" y="193.5880000000002" as="targetPoint" />
          </mxGeometry>
        </mxCell>
        <mxCell id="ReJkrMEg36XuSZIFQXkJ-119" value="Extends" style="endArrow=block;endSize=16;endFill=0;html=1;rounded=0;exitX=0.436;exitY=-0.016;exitDx=0;exitDy=0;exitPerimeter=0;entryX=0.228;entryY=1.048;entryDx=0;entryDy=0;entryPerimeter=0;" parent="1" source="ReJkrMEg36XuSZIFQXkJ-46" target="ReJkrMEg36XuSZIFQXkJ-108" edge="1">
          <mxGeometry width="160" relative="1" as="geometry">
            <mxPoint x="2570" y="260" as="sourcePoint" />
            <mxPoint x="2030" y="-340" as="targetPoint" />
          </mxGeometry>
        </mxCell>
        <mxCell id="ReJkrMEg36XuSZIFQXkJ-120" value="Extends" style="endArrow=block;endSize=16;endFill=0;html=1;rounded=0;exitX=0.9;exitY=-0.015;exitDx=0;exitDy=0;entryX=0.517;entryY=1.043;entryDx=0;entryDy=0;entryPerimeter=0;exitPerimeter=0;" parent="1" source="ReJkrMEg36XuSZIFQXkJ-67" target="ReJkrMEg36XuSZIFQXkJ-108" edge="1">
          <mxGeometry width="160" relative="1" as="geometry">
            <mxPoint x="2019.7600000000002" y="324.904" as="sourcePoint" />
            <mxPoint x="2597.9100000000008" y="126.24399999999991" as="targetPoint" />
          </mxGeometry>
        </mxCell>
        <mxCell id="ReJkrMEg36XuSZIFQXkJ-121" value="Extends" style="endArrow=block;endSize=16;endFill=0;html=1;rounded=0;exitX=0.56;exitY=-0.003;exitDx=0;exitDy=0;exitPerimeter=0;entryX=0.757;entryY=1.021;entryDx=0;entryDy=0;entryPerimeter=0;" parent="1" source="ReJkrMEg36XuSZIFQXkJ-73" target="ReJkrMEg36XuSZIFQXkJ-104" edge="1">
          <mxGeometry width="160" relative="1" as="geometry">
            <mxPoint x="2680" y="260" as="sourcePoint" />
            <mxPoint x="2580" y="-70" as="targetPoint" />
          </mxGeometry>
        </mxCell>
        <mxCell id="ReJkrMEg36XuSZIFQXkJ-122" value="Extends" style="endArrow=block;endSize=16;endFill=0;html=1;rounded=0;exitX=0.5;exitY=0;exitDx=0;exitDy=0;entryX=0.229;entryY=1.018;entryDx=0;entryDy=0;entryPerimeter=0;" parent="1" source="ReJkrMEg36XuSZIFQXkJ-71" target="ReJkrMEg36XuSZIFQXkJ-96" edge="1">
          <mxGeometry width="160" relative="1" as="geometry">
            <mxPoint x="2650" y="-10" as="sourcePoint" />
            <mxPoint x="2810" y="-10" as="targetPoint" />
          </mxGeometry>
        </mxCell>
        <mxCell id="ReJkrMEg36XuSZIFQXkJ-123" value="Extends" style="endArrow=block;endSize=16;endFill=0;html=1;rounded=0;exitX=0.327;exitY=-0.19;exitDx=0;exitDy=0;entryX=0.735;entryY=1.024;entryDx=0;entryDy=0;exitPerimeter=0;entryPerimeter=0;" parent="1" source="ReJkrMEg36XuSZIFQXkJ-85" target="ReJkrMEg36XuSZIFQXkJ-96" edge="1">
          <mxGeometry width="160" relative="1" as="geometry">
            <mxPoint x="2200" y="329" as="sourcePoint" />
            <mxPoint x="2600" y="-585.9999999999998" as="targetPoint" />
          </mxGeometry>
        </mxCell>
        <mxCell id="ReJkrMEg36XuSZIFQXkJ-124" value="Extends" style="endArrow=block;endSize=16;endFill=0;html=1;rounded=0;exitX=0.5;exitY=0;exitDx=0;exitDy=0;entryX=0.526;entryY=1.052;entryDx=0;entryDy=0;entryPerimeter=0;" parent="1" source="ReJkrMEg36XuSZIFQXkJ-76" target="ReJkrMEg36XuSZIFQXkJ-100" edge="1">
          <mxGeometry width="160" relative="1" as="geometry">
            <mxPoint x="3022.3199999999997" y="322.53999999999996" as="sourcePoint" />
            <mxPoint x="2670" y="-606" as="targetPoint" />
          </mxGeometry>
        </mxCell>
        <mxCell id="ReJkrMEg36XuSZIFQXkJ-125" value="Activity" style="swimlane;fontStyle=1;align=center;verticalAlign=top;childLayout=stackLayout;horizontal=1;startSize=26;horizontalStack=0;resizeParent=1;resizeParentMax=0;resizeLast=0;collapsible=1;marginBottom=0;hachureGap=4;pointerEvents=0;sketch=0;fontColor=#5AA9E6;strokeColor=#FF6392;fillColor=#FFE45E;" parent="1" vertex="1">
          <mxGeometry x="1710" y="483.99999999999994" width="160" height="200" as="geometry" />
        </mxCell>
        <mxCell id="ReJkrMEg36XuSZIFQXkJ-126" value="&#xa;-entity: Entity&#xa;-repeatCount: int" style="text;strokeColor=none;fillColor=none;align=left;verticalAlign=top;spacingLeft=4;spacingRight=4;overflow=hidden;rotatable=0;points=[[0,0.5],[1,0.5]];portConstraint=eastwest;" parent="ReJkrMEg36XuSZIFQXkJ-125" vertex="1">
          <mxGeometry y="26" width="160" height="124" as="geometry" />
        </mxCell>
        <mxCell id="ReJkrMEg36XuSZIFQXkJ-127" value="" style="line;strokeWidth=1;fillColor=none;align=left;verticalAlign=middle;spacingTop=-1;spacingLeft=3;spacingRight=3;rotatable=0;labelPosition=right;points=[];portConstraint=eastwest;" parent="ReJkrMEg36XuSZIFQXkJ-125" vertex="1">
          <mxGeometry y="150" width="160" height="8" as="geometry" />
        </mxCell>
        <mxCell id="ReJkrMEg36XuSZIFQXkJ-128" value="TODO&#xa;+executeAction()    &#xa;&#xa;&#xa;                  " style="text;strokeColor=none;fillColor=none;align=left;verticalAlign=top;spacingLeft=4;spacingRight=4;overflow=hidden;rotatable=0;points=[[0,0.5],[1,0.5]];portConstraint=eastwest;" parent="ReJkrMEg36XuSZIFQXkJ-125" vertex="1">
          <mxGeometry y="158" width="160" height="42" as="geometry" />
        </mxCell>
        <mxCell id="zz2NhMHYMFujWKE8MbkC-2" value="Chess Board" style="swimlane;fontStyle=0;childLayout=stackLayout;horizontal=1;startSize=30;horizontalStack=0;resizeParent=1;resizeParentMax=0;resizeLast=0;collapsible=1;marginBottom=0;" parent="1" vertex="1">
          <mxGeometry x="500" y="-980" width="140" height="290" as="geometry" />
        </mxCell>
        <mxCell id="zz2NhMHYMFujWKE8MbkC-3" value="variables&#xa;game: List(List[int])&#xa;board: List&lt;GridItem&gt;&#xa;moveList: List&lt;String&gt;&#xa;functions:&#xa;flip()&#xa;move()&#xa;isValidMove()&#xa;isValidSquare()&#xa;isBlockedDiagonal()&#xa;isBlockedHorizontal()&#xa;isBlockedVertical()&#xa;isValidPieceMove()&#xa;findKing()&#xa;updateGameState()&#xa;checkGameResult()&#xa;endpoints:&#xa;/start&#xa;/move" style="text;strokeColor=none;fillColor=none;align=left;verticalAlign=middle;spacingLeft=4;spacingRight=4;overflow=hidden;points=[[0,0.5],[1,0.5]];portConstraint=eastwest;rotatable=0;" parent="zz2NhMHYMFujWKE8MbkC-2" vertex="1">
          <mxGeometry y="30" width="140" height="260" as="geometry" />
        </mxCell>
        <mxCell id="zz2NhMHYMFujWKE8MbkC-10" value="" style="endArrow=classic;html=1;rounded=0;entryX=0;entryY=0.5;entryDx=0;entryDy=0;" parent="1" target="zz2NhMHYMFujWKE8MbkC-13" edge="1">
          <mxGeometry relative="1" as="geometry">
            <mxPoint x="640" y="-880" as="sourcePoint" />
            <mxPoint x="740" y="-880" as="targetPoint" />
          </mxGeometry>
        </mxCell>
        <mxCell id="zz2NhMHYMFujWKE8MbkC-11" value="one to one" style="edgeLabel;resizable=0;html=1;align=center;verticalAlign=middle;" parent="zz2NhMHYMFujWKE8MbkC-10" connectable="0" vertex="1">
          <mxGeometry relative="1" as="geometry" />
        </mxCell>
        <mxCell id="zz2NhMHYMFujWKE8MbkC-12" value="Game" style="swimlane;fontStyle=0;childLayout=stackLayout;horizontal=1;startSize=30;horizontalStack=0;resizeParent=1;resizeParentMax=0;resizeLast=0;collapsible=1;marginBottom=0;" parent="1" vertex="1">
          <mxGeometry x="750" y="-980" width="140" height="180" as="geometry" />
        </mxCell>
        <mxCell id="zz2NhMHYMFujWKE8MbkC-13" value="variables&#xa;player1: String&#xa;player2: String&#xa;move_list: String&#xa;winner: String&#xa;functions:&#xa;createGame()&#xa;updateGame()" style="text;strokeColor=none;fillColor=none;align=left;verticalAlign=middle;spacingLeft=4;spacingRight=4;overflow=hidden;points=[[0,0.5],[1,0.5]];portConstraint=eastwest;rotatable=0;" parent="zz2NhMHYMFujWKE8MbkC-12" vertex="1">
          <mxGeometry y="30" width="140" height="150" as="geometry" />
        </mxCell>
        <mxCell id="zz2NhMHYMFujWKE8MbkC-19" value="Piece" style="swimlane;fontStyle=0;childLayout=stackLayout;horizontal=1;startSize=30;horizontalStack=0;resizeParent=1;resizeParentMax=0;resizeLast=0;collapsible=1;marginBottom=0;" parent="1" vertex="1">
          <mxGeometry x="210" y="-980" width="160" height="180" as="geometry" />
        </mxCell>
        <mxCell id="zz2NhMHYMFujWKE8MbkC-20" value="variables&#xa;pieceType: &quot;string&quot;&#xa;pieceColor: &quot;string&quot;&#xa;" style="text;strokeColor=none;fillColor=none;align=left;verticalAlign=middle;spacingLeft=4;spacingRight=4;overflow=hidden;points=[[0,0.5],[1,0.5]];portConstraint=eastwest;rotatable=0;" parent="zz2NhMHYMFujWKE8MbkC-19" vertex="1">
          <mxGeometry y="30" width="160" height="150" as="geometry" />
        </mxCell>
        <mxCell id="zz2NhMHYMFujWKE8MbkC-23" value="" style="endArrow=classic;html=1;rounded=0;exitX=1.031;exitY=0.313;exitDx=0;exitDy=0;exitPerimeter=0;entryX=0.012;entryY=0.264;entryDx=0;entryDy=0;entryPerimeter=0;" parent="1" source="zz2NhMHYMFujWKE8MbkC-20" target="zz2NhMHYMFujWKE8MbkC-3" edge="1">
          <mxGeometry relative="1" as="geometry">
            <mxPoint x="380" y="-900" as="sourcePoint" />
            <mxPoint x="480" y="-900" as="targetPoint" />
          </mxGeometry>
        </mxCell>
        <mxCell id="zz2NhMHYMFujWKE8MbkC-24" value="Many to One" style="edgeLabel;resizable=0;html=1;align=center;verticalAlign=middle;" parent="zz2NhMHYMFujWKE8MbkC-23" connectable="0" vertex="1">
          <mxGeometry relative="1" as="geometry" />
        </mxCell>
      </root>
    </mxGraphModel>
  </diagram>
</mxfile>
